<?xml version="1.0" encoding="UTF-8"?>
<!DOCTYPE svg PUBLIC "-//W3C//DTD SVG 1.1//EN" "http://www.w3.org/Graphics/SVG/1.1/DTD/svg11.dtd">
<!-- Creator: CorelDRAW X7 -->
<svg xmlns="http://www.w3.org/2000/svg" xml:space="preserve" width="167.056mm" height="37.1391mm" version="1.1" shape-rendering="geometricPrecision" text-rendering="geometricPrecision" image-rendering="optimizeQuality" fill-rule="evenodd" clip-rule="evenodd"
viewBox="0 0 19218 4272"
 xmlns:xlink="http://www.w3.org/1999/xlink">
 <defs>
   <linearGradient id="id0" gradientUnits="userSpaceOnUse" x1="11240" y1="4644.01" x2="14006.8" y2="-108.02">
    <stop offset="0" stop-opacity="1" stop-color="#0D529F"/>
    <stop offset="0.368627" stop-opacity="1" stop-color="#47499E"/>
    <stop offset="1" stop-opacity="1" stop-color="#81409C"/>
   </linearGradient>
   <linearGradient id="id1" gradientUnits="userSpaceOnUse" x1="11240" y1="4644.01" x2="14006.8" y2="-108.02">
    <stop offset="0" stop-opacity="1" stop-color="#0D529F"/>
    <stop offset="0.368627" stop-opacity="1" stop-color="#47499E"/>
    <stop offset="1" stop-opacity="1" stop-color="#81409C"/>
   </linearGradient>
   <linearGradient id="id2" gradientUnits="userSpaceOnUse" x1="1797.09" y1="1412.96" x2="2950.06" y2="3265.31">
    <stop offset="0" stop-opacity="1" stop-color="#33317C"/>
    <stop offset="0.219608" stop-opacity="1" stop-color="#5E3994"/>
    <stop offset="1" stop-opacity="1" stop-color="#8941AD"/>
   </linearGradient>
   <linearGradient id="id3" gradientUnits="userSpaceOnUse" x1="3993.15" y1="2868.36" x2="4747.72" y2="2501.72">
    <stop offset="0" stop-opacity="1" stop-color="#174E8F"/>
    <stop offset="0.490196" stop-opacity="1" stop-color="#4A4C91"/>
    <stop offset="1" stop-opacity="1" stop-color="#7D4993"/>
   </linearGradient>
   <linearGradient id="id4" gradientUnits="userSpaceOnUse" x1="4071.89" y1="1004.71" x2="4681" y2="142.726">
    <stop offset="0" stop-opacity="1" stop-color="#164D9D"/>
    <stop offset="0.568627" stop-opacity="1" stop-color="#4B4C9A"/>
    <stop offset="1" stop-opacity="1" stop-color="#804A96"/>
   </linearGradient>
   <linearGradient id="id5" gradientUnits="userSpaceOnUse" x1="854.608" y1="3231.19" x2="2108.33" y2="1447.08">
    <stop offset="0" stop-opacity="1" stop-color="#0D529F"/>
    <stop offset="0.290196" stop-opacity="1" stop-color="#47499E"/>
    <stop offset="1" stop-opacity="1" stop-color="#81409C"/>
   </linearGradient>
 </defs>
 <g id="Layer_x0020_1">
  <metadata id="CorelCorpID_0Corel-Layer"/>
  <text x="5965" y="3091"  fill="url(#id0)" font-weight="900" font-size="2308.88px" font-family="Poppins Black">S</text>
  <text x="7408" y="3091"  fill="url(#id1)" font-weight="900" font-size="2308.88px" font-family="Poppins Black">OLUTIONS</text>
  <text x="6945" y="4074"  fill="#330157" font-weight="300" font-size="740.446px" font-family="Poppins Light">S</text>
  <text x="7498" y="4074"  fill="#330157" font-weight="300" font-size="740.446px" font-family="Poppins Light">m</text>
  <text x="8385" y="4074"  fill="#330157" font-weight="300" font-size="740.446px" font-family="Poppins Light">a</text>
  <text x="9015" y="4074"  fill="#330157" font-weight="300" font-size="740.446px" font-family="Poppins Light">r</text>
  <text x="9413" y="4074"  fill="#330157" font-weight="300" font-size="740.446px" font-family="Poppins Light">t   D</text>
  <text x="10937" y="4074"  fill="#330157" font-weight="300" font-size="740.446px" font-family="Poppins Light">i</text>
  <text x="11237" y="4074"  fill="#330157" font-weight="300" font-size="740.446px" font-family="Poppins Light">g</text>
  <text x="11866" y="4074"  fill="#330157" font-weight="300" font-size="740.446px" font-family="Poppins Light">i</text>
  <text x="12166" y="4074"  fill="#330157" font-weight="300" font-size="740.446px" font-family="Poppins Light">t</text>
  <text x="12559" y="4074"  fill="#330157" font-weight="300" font-size="740.446px" font-family="Poppins Light">a</text>
  <text x="13189" y="4074"  fill="#330157" font-weight="300" font-size="740.446px" font-family="Poppins Light">l   S</text>
  <text x="14521" y="4074"  fill="#330157" font-weight="300" font-size="740.446px" font-family="Poppins Light">o</text>
  <text x="15126" y="4074"  fill="#330157" font-weight="300" font-size="740.446px" font-family="Poppins Light">l</text>
  <text x="15425" y="4074"  fill="#330157" font-weight="300" font-size="740.446px" font-family="Poppins Light">u</text>
  <text x="16024" y="4074"  fill="#330157" font-weight="300" font-size="740.446px" font-family="Poppins Light">t</text>
  <text x="16417" y="4074"  fill="#330157" font-weight="300" font-size="740.446px" font-family="Poppins Light">i</text>
  <text x="16717" y="4074"  fill="#330157" font-weight="300" font-size="740.446px" font-family="Poppins Light">o</text>
  <text x="17322" y="4074"  fill="#330157" font-weight="300" font-size="740.446px" font-family="Poppins Light">n</text>
  <text x="17920" y="4074"  fill="#330157" font-weight="300" font-size="740.446px" font-family="Poppins Light">s</text>
  <path fill="url(#id2)" d="M4747 4074l-1381 0c-193,0 -375,-95 -484,-255l-508 -743 -508 743c-110,160 -291,255 -485,255l-1381 0 2036 -3470 676 0 2035 3470z"/>
  <path fill="url(#id3)" d="M4956 1365l0 2640 -1052 -1793c-78,-133 -119,-285 -119,-440l0 -407 1171 0z"/>
  <path fill="url(#id4)" d="M4950 574c0,-317 -257,-574 -574,-574 -316,0 -573,257 -573,574 0,317 257,573 573,573 317,0 574,-256 574,-573z"/>
  <path fill="url(#id5)" d="M2758 2345l-384 731 -508 743c-110,159 -291,255 -485,255l-1381 0 2036 -3470 676 0c317,533 335,1192 46,1741z"/>
 </g>
</svg>
