<?xml version="1.0" encoding="UTF-8"?>
<!DOCTYPE svg PUBLIC "-//W3C//DTD SVG 1.1//EN" "http://www.w3.org/Graphics/SVG/1.1/DTD/svg11.dtd">
<!-- Creator: CorelDRAW X7 -->
<svg xmlns="http://www.w3.org/2000/svg" xml:space="preserve" width="1489.89mm" height="331.225mm" version="1.1" style="shape-rendering:geometricPrecision; text-rendering:geometricPrecision; image-rendering:optimizeQuality; fill-rule:evenodd; clip-rule:evenodd"
viewBox="0 0 61816 13743"
 xmlns:xlink="http://www.w3.org/1999/xlink">
 <defs>
  <style type="text/css">
   <![CDATA[
    .fil1 {fill:#330157;fill-rule:nonzero}
    .fil3 {fill:url(#id0)}
    .fil4 {fill:url(#id1)}
    .fil2 {fill:url(#id2)}
    .fil5 {fill:url(#id3)}
    .fil0 {fill:url(#id4);fill-rule:nonzero}
   ]]>
  </style>
  <linearGradient id="id0" gradientUnits="userSpaceOnUse" x1="12844.5" y1="9226.41" x2="15271.6" y2="8047.05">
   <stop offset="0" style="stop-opacity:1; stop-color:#174E8F"/>
   <stop offset="0.490196" style="stop-opacity:1; stop-color:#4A4C91"/>
   <stop offset="1" style="stop-opacity:1; stop-color:#7D4993"/>
  </linearGradient>
  <linearGradient id="id1" gradientUnits="userSpaceOnUse" x1="13097.7" y1="3231.77" x2="15057" y2="459.067">
   <stop offset="0" style="stop-opacity:1; stop-color:#164D9D"/>
   <stop offset="0.568627" style="stop-opacity:1; stop-color:#4B4C9A"/>
   <stop offset="1" style="stop-opacity:1; stop-color:#804A96"/>
  </linearGradient>
  <linearGradient id="id2" gradientUnits="userSpaceOnUse" x1="5780.59" y1="4544.95" x2="9489.22" y2="10503.2">
   <stop offset="0" style="stop-opacity:1; stop-color:#33317C"/>
   <stop offset="0.219608" style="stop-opacity:1; stop-color:#5E3994"/>
   <stop offset="1" style="stop-opacity:1; stop-color:#8941AD"/>
  </linearGradient>
  <linearGradient id="id3" gradientUnits="userSpaceOnUse" x1="2748.97" y1="10393.5" x2="6781.69" y2="4654.69">
   <stop offset="0" style="stop-opacity:1; stop-color:#0D529F"/>
   <stop offset="0.290196" style="stop-opacity:1; stop-color:#47499E"/>
   <stop offset="1" style="stop-opacity:1; stop-color:#81409C"/>
  </linearGradient>
  <linearGradient id="id4" gradientUnits="userSpaceOnUse" x1="36154.9" y1="14938" x2="45054.7" y2="-347.459">
   <stop offset="0" style="stop-opacity:1; stop-color:#0D529F"/>
   <stop offset="0.368627" style="stop-opacity:1; stop-color:#47499E"/>
   <stop offset="1" style="stop-opacity:1; stop-color:#81409C"/>
  </linearGradient>
 </defs>
 <g id="Layer_x0020_1">
  <metadata id="CorelCorpID_0Corel-Layer"/>
  <path class="fil0" d="M21614 9995c-628,0 -1147,-147 -1555,-442 -409,-295 -630,-727 -665,-1296l1753 0c24,302 158,453 401,453 89,0 164,-21 226,-63 62,-42 93,-108 93,-197 0,-124 -67,-224 -201,-301 -133,-76 -341,-164 -623,-263 -337,-119 -616,-235 -836,-349 -220,-114 -410,-280 -568,-498 -159,-218 -235,-498 -230,-839 0,-342 88,-633 263,-873 176,-240 416,-422 721,-546 304,-123 647,-185 1028,-185 644,0 1155,148 1534,445 379,297 578,716 598,1255l-1775 0c-5,-148 -42,-255 -112,-319 -69,-64 -153,-97 -252,-97 -69,0 -126,24 -171,71 -44,47 -67,113 -67,197 0,119 66,216 197,293 131,77 340,170 628,279 331,123 605,242 820,356 216,114 403,273 561,476 158,203 238,457 238,764 0,322 -80,611 -238,866 -158,255 -389,454 -691,598 -302,143 -661,215 -1077,215zm5147 0c-495,0 -949,-116 -1363,-349 -413,-233 -741,-555 -984,-966 -242,-411 -364,-873 -364,-1388 0,-515 122,-978 364,-1389 243,-411 571,-732 984,-962 414,-230 868,-345 1363,-345 495,0 948,115 1359,345 411,230 737,551 977,962 240,411 360,874 360,1389 0,515 -120,977 -360,1388 -240,411 -567,733 -980,966 -414,233 -866,349 -1356,349zm0 -1537c327,0 580,-106 758,-316 178,-210 267,-494 267,-850 0,-362 -89,-648 -267,-858 -178,-211 -431,-316 -758,-316 -331,0 -586,105 -765,316 -178,210 -267,496 -267,858 0,356 89,640 267,850 179,210 434,316 765,316zm4939 237l1589 0 0 1248 -3238 0 0 -5258 1649 0 0 4010zm3721 -4010l0 2963c0,243 53,435 160,576 106,141 278,211 516,211 237,0 413,-70 527,-211 114,-141 171,-333 171,-576l0 -2963 1641 0 0 2963c0,500 -104,927 -312,1281 -208,354 -492,620 -854,799 -361,178 -765,267 -1210,267 -446,0 -841,-89 -1185,-267 -344,-179 -613,-444 -806,-795 -193,-352 -289,-780 -289,-1285l0 -2963 1641 0zm7857 0l0 1307 -1396 0 0 3951 -1649 0 0 -3951 -1381 0 0 -1307 4426 0zm2095 0l0 5258 -1649 0 0 -5258 1649 0zm3305 5310c-495,0 -950,-116 -1363,-349 -414,-233 -742,-555 -984,-966 -243,-411 -364,-873 -364,-1388 0,-515 121,-978 364,-1389 242,-411 570,-732 984,-962 413,-230 868,-345 1363,-345 495,0 948,115 1359,345 411,230 736,551 976,962 241,411 361,874 361,1389 0,515 -120,977 -361,1388 -240,411 -566,733 -980,966 -413,233 -865,349 -1355,349zm0 -1537c327,0 579,-106 757,-316 179,-210 268,-494 268,-850 0,-362 -89,-648 -268,-858 -178,-211 -430,-316 -757,-316 -332,0 -587,105 -765,316 -178,210 -268,496 -268,858 0,356 90,640 268,850 178,210 433,316 765,316zm8333 1485l-1649 0 -1745 -2644 0 2644 -1649 0 0 -5258 1649 0 1745 2688 0 -2688 1649 0 0 5258zm2799 52c-628,0 -1147,-147 -1555,-442 -409,-295 -630,-727 -665,-1296l1753 0c24,302 158,453 401,453 89,0 164,-21 226,-63 62,-42 93,-108 93,-197 0,-124 -67,-224 -201,-301 -133,-76 -341,-164 -623,-263 -337,-119 -616,-235 -836,-349 -220,-114 -410,-280 -568,-498 -158,-218 -235,-498 -230,-839 0,-342 88,-633 263,-873 176,-240 416,-422 721,-546 304,-123 647,-185 1028,-185 644,0 1155,148 1534,445 379,297 578,716 598,1255l-1775 0c-5,-148 -42,-255 -112,-319 -69,-64 -153,-97 -252,-97 -69,0 -126,24 -171,71 -44,47 -67,113 -67,197 0,119 66,216 197,293 131,77 341,170 628,279 331,123 605,242 820,356 216,114 403,273 561,476 159,203 238,457 238,764 0,322 -79,611 -238,866 -158,255 -389,454 -691,598 -302,143 -661,215 -1077,215z"/>
  <path class="fil1" d="M23035 13121c-109,0 -206,-19 -289,-57 -83,-38 -149,-92 -197,-160 -47,-68 -73,-144 -76,-228l176 0c8,81 44,152 108,213 63,61 156,91 278,91 113,0 202,-29 268,-87 66,-57 99,-131 99,-220 0,-71 -18,-129 -55,-173 -36,-43 -81,-76 -135,-97 -54,-22 -129,-45 -224,-70 -111,-31 -200,-60 -265,-89 -65,-28 -120,-73 -166,-133 -46,-60 -70,-142 -70,-245 0,-86 23,-163 67,-230 45,-68 107,-120 188,-158 81,-39 174,-58 279,-58 154,0 278,38 373,114 94,75 149,172 163,291l-181 0c-11,-68 -49,-129 -112,-182 -64,-53 -149,-80 -257,-80 -100,0 -184,27 -250,80 -67,53 -100,126 -100,218 0,70 18,126 54,169 37,43 83,76 137,98 55,22 129,46 223,71 108,30 195,60 262,90 67,29 123,74 169,134 46,60 69,141 69,243 0,78 -20,152 -62,222 -41,69 -102,126 -183,169 -81,43 -178,64 -291,64zm2824 -1341c152,0 276,48 372,144 96,96 144,236 144,418l0 762 -164 0 0 -743c0,-141 -34,-249 -102,-324 -69,-74 -162,-112 -279,-112 -122,0 -220,41 -293,122 -73,81 -110,198 -110,352l0 705 -164 0 0 -743c0,-141 -34,-249 -102,-324 -69,-74 -162,-112 -281,-112 -123,0 -220,41 -293,122 -73,81 -110,198 -110,352l0 705 -167 0 0 -1300 167 0 0 224c41,-81 100,-143 176,-185 77,-42 162,-63 255,-63 113,0 212,27 297,81 85,54 146,133 184,238 35,-103 95,-182 180,-237 85,-55 182,-82 290,-82zm1227 672c0,-134 27,-251 80,-352 53,-100 127,-178 221,-233 95,-55 202,-82 321,-82 123,0 230,28 320,86 90,57 154,130 194,219l0 -286 167 0 0 1300 -167 0 0 -288c-41,89 -107,162 -196,220 -90,58 -197,87 -321,87 -117,0 -223,-27 -318,-83 -94,-56 -168,-134 -221,-236 -53,-101 -80,-219 -80,-352zm1136 2c0,-105 -21,-197 -64,-276 -43,-80 -101,-141 -175,-184 -74,-42 -156,-64 -244,-64 -93,0 -175,21 -248,62 -73,41 -131,101 -173,180 -42,78 -63,172 -63,280 0,106 21,199 63,280 42,80 100,141 173,183 73,42 155,63 248,63 88,0 170,-21 244,-64 74,-43 132,-104 175,-184 43,-79 64,-171 64,-276zm1132 -419c37,-81 93,-144 168,-188 76,-45 168,-67 278,-67l0 174 -46 0c-120,0 -217,32 -290,98 -73,65 -110,173 -110,326l0 726 -166 0 0 -1300 166 0 0 231zm1330 -91l0 808c0,79 15,134 45,164 31,30 84,45 160,45l152 0 0 143 -178 0c-118,0 -205,-27 -262,-82 -57,-55 -86,-145 -86,-270l0 -808 -181 0 0 -140 181 0 0 -326 169 0 0 326 357 0 0 140 -357 0zm3082 -505c184,0 342,34 474,100 132,67 233,163 302,289 70,125 105,274 105,447 0,172 -35,320 -105,445 -69,124 -170,220 -302,285 -132,66 -290,99 -474,99l-493 0 0 -1665 493 0zm0 1527c232,0 409,-61 530,-182 121,-122 182,-291 182,-509 0,-219 -61,-390 -182,-513 -121,-123 -298,-184 -530,-184l-326 0 0 1388 326 0zm1690 -1407c-34,0 -62,-12 -86,-36 -24,-24 -36,-53 -36,-88 0,-35 12,-64 36,-87 24,-23 52,-35 86,-35 33,0 61,12 85,35 24,23 36,52 36,87 0,35 -12,64 -36,88 -24,24 -52,36 -85,36zm83 245l0 1300 -167 0 0 -1300 167 0zm1342 -19c122,0 228,28 319,86 90,57 155,129 195,216l0 -283 167 0 0 1334c0,119 -26,224 -78,316 -51,92 -123,164 -215,214 -92,50 -197,75 -314,75 -167,0 -306,-40 -416,-120 -110,-79 -179,-187 -206,-323l164 0c29,90 83,162 163,216 81,54 179,81 295,81 84,0 159,-18 226,-53 66,-36 119,-89 157,-159 38,-70 57,-152 57,-247l0 -322c-41,89 -107,162 -196,220 -90,58 -196,87 -318,87 -119,0 -226,-27 -321,-83 -94,-56 -168,-134 -221,-236 -53,-101 -80,-219 -80,-352 0,-134 27,-251 80,-352 53,-100 127,-178 221,-233 95,-55 202,-82 321,-82zm514 669c0,-105 -21,-197 -64,-276 -43,-80 -101,-141 -175,-184 -74,-42 -155,-64 -244,-64 -92,0 -175,21 -248,62 -73,41 -131,101 -173,180 -42,78 -63,172 -63,280 0,106 21,199 63,280 42,80 100,141 173,183 73,42 156,63 248,63 89,0 170,-21 244,-64 74,-43 132,-104 175,-184 43,-79 64,-171 64,-276zm1049 -895c-33,0 -62,-12 -86,-36 -24,-24 -36,-53 -36,-88 0,-35 12,-64 36,-87 24,-23 53,-35 86,-35 33,0 62,12 86,35 24,23 35,52 35,87 0,35 -11,64 -35,88 -24,24 -53,36 -86,36zm83 245l0 1300 -166 0 0 -1300 166 0zm1013 140l0 808c0,79 16,134 46,164 30,30 83,45 159,45l153 0 0 143 -179 0c-117,0 -205,-27 -262,-82 -57,-55 -86,-145 -86,-270l0 -808 -181 0 0 -140 181 0 0 -326 169 0 0 326 358 0 0 140 -358 0zm973 508c0,-134 27,-251 80,-352 53,-100 127,-178 221,-233 95,-55 202,-82 321,-82 124,0 230,28 320,86 90,57 154,130 194,219l0 -286 167 0 0 1300 -167 0 0 -288c-41,89 -107,162 -196,220 -90,58 -197,87 -321,87 -117,0 -223,-27 -318,-83 -94,-56 -168,-134 -221,-236 -53,-101 -80,-219 -80,-352zm1136 2c0,-105 -21,-197 -64,-276 -43,-80 -101,-141 -175,-184 -74,-42 -155,-64 -244,-64 -92,0 -175,21 -248,62 -73,41 -131,101 -173,180 -42,78 -63,172 -63,280 0,106 21,199 63,280 42,80 100,141 173,183 73,42 156,63 248,63 89,0 170,-21 244,-64 74,-43 132,-104 175,-184 43,-79 64,-171 64,-276zm1132 -1112l0 1762 -166 0 0 -1762 166 0zm2842 1779c-110,0 -206,-19 -290,-57 -83,-38 -149,-92 -196,-160 -48,-68 -73,-144 -76,-228l176 0c8,81 44,152 107,213 64,61 156,91 279,91 112,0 202,-29 268,-87 66,-57 98,-131 98,-220 0,-71 -18,-129 -54,-173 -37,-43 -82,-76 -136,-97 -54,-22 -129,-45 -224,-70 -111,-31 -199,-60 -264,-89 -65,-28 -121,-73 -167,-133 -46,-60 -69,-142 -69,-245 0,-86 22,-163 67,-230 44,-68 107,-120 188,-158 81,-39 174,-58 278,-58 154,0 279,38 373,114 95,75 149,172 163,291l-181 0c-11,-68 -48,-129 -112,-182 -63,-53 -149,-80 -257,-80 -100,0 -183,27 -250,80 -67,53 -100,126 -100,218 0,70 18,126 55,169 36,43 82,76 137,98 55,22 129,46 222,71 108,30 196,60 262,90 67,29 123,74 170,134 46,60 69,141 69,243 0,78 -21,152 -62,222 -42,69 -103,126 -184,169 -81,43 -178,64 -290,64zm1844 2c-122,0 -232,-27 -330,-82 -98,-55 -175,-132 -231,-233 -56,-101 -84,-219 -84,-354 0,-135 28,-253 85,-354 57,-100 135,-178 234,-233 98,-55 209,-82 331,-82 122,0 233,27 332,82 99,55 177,133 233,233 57,101 85,219 85,354 0,133 -29,251 -86,353 -57,101 -136,179 -236,234 -100,55 -211,82 -333,82zm0 -145c86,0 165,-19 238,-58 73,-39 132,-98 178,-177 45,-78 68,-175 68,-289 0,-114 -23,-211 -67,-289 -45,-79 -103,-138 -176,-177 -73,-38 -153,-58 -239,-58 -85,0 -165,20 -238,58 -73,39 -131,98 -175,177 -44,78 -65,175 -65,289 0,114 21,211 65,289 44,79 102,138 174,177 72,39 151,58 237,58zm1544 -1636l0 1762 -166 0 0 -1762 166 0zm1923 462l0 1300 -167 0 0 -228c-38,81 -96,143 -176,185 -79,43 -168,65 -267,65 -155,0 -282,-48 -381,-144 -98,-96 -147,-236 -147,-418l0 -760 164 0 0 741c0,141 35,249 106,323 71,75 167,112 289,112 126,0 226,-39 300,-119 75,-79 112,-196 112,-350l0 -707 167 0zm1016 140l0 808c0,79 15,134 45,164 30,30 83,45 159,45l153 0 0 143 -179 0c-117,0 -205,-27 -262,-82 -57,-55 -85,-145 -85,-270l0 -808 -181 0 0 -140 181 0 0 -326 169 0 0 326 357 0 0 140 -357 0zm1132 -385c-34,0 -62,-12 -86,-36 -24,-24 -36,-53 -36,-88 0,-35 12,-64 36,-87 24,-23 52,-35 86,-35 33,0 62,12 86,35 23,23 35,52 35,87 0,35 -12,64 -35,88 -24,24 -53,36 -86,36zm83 245l0 1300 -167 0 0 -1300 167 0zm1366 1319c-123,0 -232,-27 -330,-82 -98,-55 -175,-132 -231,-233 -57,-101 -85,-219 -85,-354 0,-135 29,-253 86,-354 57,-100 135,-178 233,-233 99,-55 209,-82 332,-82 122,0 233,27 332,82 99,55 177,133 233,233 57,101 85,219 85,354 0,133 -29,251 -86,353 -57,101 -136,179 -236,234 -100,55 -211,82 -333,82zm0 -145c85,0 165,-19 238,-58 73,-39 132,-98 177,-177 46,-78 68,-175 68,-289 0,-114 -22,-211 -66,-289 -45,-79 -104,-138 -177,-177 -73,-38 -152,-58 -238,-58 -86,0 -165,20 -238,58 -73,39 -131,98 -175,177 -44,78 -66,175 -66,289 0,114 22,211 66,289 44,79 102,138 174,177 72,39 151,58 237,58zm1987 -1198c156,0 283,48 381,144 98,96 148,236 148,418l0 762 -165 0 0 -743c0,-141 -35,-249 -106,-324 -70,-74 -167,-112 -289,-112 -125,0 -225,40 -300,119 -75,80 -112,196 -112,351l0 709 -167 0 0 -1300 167 0 0 221c41,-79 101,-140 179,-182 77,-42 166,-63 264,-63zm1763 1343c-149,0 -271,-34 -365,-103 -95,-69 -148,-163 -159,-283l172 0c8,74 42,133 103,178 62,45 144,68 247,68 90,0 161,-22 213,-65 52,-42 78,-96 78,-159 0,-45 -15,-81 -43,-110 -29,-28 -65,-51 -109,-68 -43,-16 -103,-34 -177,-53 -97,-26 -176,-51 -236,-76 -60,-26 -112,-63 -154,-113 -42,-50 -63,-118 -63,-202 0,-63 19,-122 57,-176 39,-54 93,-97 162,-129 70,-31 150,-47 239,-47 139,0 252,35 338,106 86,70 132,168 138,292l-167 0c-5,-77 -34,-138 -89,-185 -55,-47 -130,-70 -225,-70 -84,0 -153,20 -205,59 -52,40 -79,89 -79,148 0,51 16,92 47,125 31,32 69,58 115,76 46,18 108,39 186,61 94,25 168,50 224,74 56,24 103,58 143,105 40,46 60,107 62,183 0,70 -19,132 -57,187 -38,55 -92,98 -160,130 -68,31 -147,47 -236,47z"/>
  <path class="fil2" d="M15270 13105l-4442 0c-623,0 -1206,-308 -1558,-822l-1635 -2390 -1634 2390c-352,514 -935,822 -1558,822l-4443 0 6548 -11162 2174 0 6548 11162z"/>
  <path class="fil3" d="M15942 4390l0 8493 -3384 -5768c-251,-429 -384,-917 -384,-1414l0 -1311 3768 0z"/>
  <path class="fil4" d="M15923 1845c0,-1019 -826,-1845 -1846,-1845 -1019,0 -1845,826 -1845,1845 0,1019 826,1846 1845,1846 1020,0 1846,-826 1846,-1846z"/>
  <path class="fil5" d="M8872 7543l-1237 2350 -1634 2390c-351,514 -934,822 -1559,822l-4442 0 6548 -11162 2174 0c1022,1713 1079,3835 150,5600z"/>
 </g>
</svg>
